# xmcd
#
# Track frame offsets:
#	150
#	18292
#	32206
#	52615
#	69546
#	89337
#	100441
#	118396
#	132889
#	147414
#	162419
#	173906
#	187924
#
# Disc length: 2666 seconds
#
# Revision: 1
# Processed by: cddbd v1.4PL0 Copyright (c) Steve Scherf et al.
# Submitted via: EasyCDDAExtractor 5.0.6
#
DISCID=b20a680d
DTITLE=Vicky Layne - Cover Story
DYEAR=1997
DGENRE=Country
TTITLE0=Two More Bottles Of Wine
TTITLE1=You Done Me Wrong
TTITLE2=Listening To The Radio
TTITLE3=Hard Promises To Keep
TTITLE4=Life N°9
TTITLE5=It Only Hurts Me When I Laugh
TTITLE6=To Feel That Way At All
TTITLE7=If I Ain't Got You
TTITLE8=Feeling Good About Feeling Bad
TTITLE9=One Hundred Miles
TTITLE10=Right Now
TTITLE11=When We Had It Bad
TTITLE12=That's What I Like About You
EXTD=
EXTT0=
EXTT1=
EXTT2=
EXTT3=
EXTT4=
EXTT5=
EXTT6=
EXTT7=
EXTT8=
EXTT9=
EXTT10=
EXTT11=
EXTT12=
PLAYORDER=
